<svg version="1.1" xmlns="http://www.w3.org/2000/svg" style="display: block;" viewBox="220 190 1620 270" width="100%" height="100%">
<path transform="translate(0,0)" fill="rgb(254,254,254)" d="M 222.842 193.697 C 247.477 194.674 271.904 192.959 296.945 194.386 C 300.146 196.915 327.865 228.516 331.943 233.19 L 381.715 289.595 C 393.252 302.733 407.474 319.597 419.538 331.721 C 411.396 317.982 399.684 305.312 393.058 290.832 C 386.777 277.104 389.889 213.416 390.961 193.894 C 412.215 194.217 433.223 193.464 454.569 194.142 C 455.839 216.174 454.185 238.804 454.83 260.815 C 455.798 293.81 452.041 329.824 456.607 362.304 C 436.49 361.757 415.78 362.139 395.624 362.025 C 390.494 361.996 369.782 361.808 365.667 362.614 C 343.289 335.444 314.117 305.486 290.18 278.557 C 291.527 286.502 291.4 327.832 291.096 338.738 C 290.183 371.445 292.824 412.074 290.372 443.895 C 267.776 445.067 245.631 443.81 223.412 444.887 C 222.899 435.769 223.096 427.099 222.971 418.038 C 221.946 343.415 224.203 268.278 222.842 193.697 z"/>
<path transform="translate(0,0)" fill="rgb(206,12,16)" d="M 1332.32 219.977 C 1361.53 220.021 1392.07 219.352 1421.17 220.298 C 1444.19 221.603 1466.64 232.221 1481.97 248.9 C 1513.12 282.785 1513.51 355.551 1477.33 386.75 C 1476.86 387.36 1476.03 388.422 1475.48 388.914 C 1446.75 414.484 1414.85 411.568 1380.41 411.438 L 1332.03 411.639 C 1332.46 349.577 1330.4 281.312 1332.32 219.977 z M 1375.22 372.518 C 1407.95 371.729 1419.09 377.671 1446.44 357.564 C 1467.28 331.768 1467.81 293.022 1442.52 269.324 C 1428.07 255.777 1394.46 257.226 1375.15 258.447 C 1375.22 295.799 1375.87 335.283 1375.22 372.518 z"/>
<path transform="translate(0,0)" fill="rgb(206,12,16)" d="M 1034.44 216.448 C 1057.2 214.756 1084.15 224.968 1101.07 240.041 C 1138.97 273.81 1141.58 347.374 1107.13 384.5 C 1087.92 405.209 1070.36 413.179 1041.83 414.355 C 1014.77 414.618 997.888 410.332 976.859 391.838 C 955.741 373.296 946.198 349.297 945.113 321.712 C 942.88 264.915 974.345 218.945 1034.44 216.448 z M 1040.76 374.756 C 1056.05 373.075 1065.67 365.422 1075.62 354.232 C 1104.03 322.299 1083.12 251.258 1035.02 256.356 C 972.73 263.782 970.793 366.809 1033.56 374.459 C 1035.75 374.726 1038.57 374.975 1040.76 374.756 z"/>
<path transform="translate(0,0)" fill="rgb(206,12,16)" d="M 554.896 193.668 C 577.663 193.607 601.14 193.136 623.834 193.368 L 623.785 288.391 C 623.795 317.561 625.846 350.499 619.289 378.555 C 606.145 434.799 554.332 455.086 501.761 454.358 C 463.776 453.832 426.806 446.16 399.615 417.61 C 384.672 401.848 372.239 383.523 365.667 362.614 C 369.782 361.808 390.494 361.996 395.624 362.025 C 415.78 362.139 436.49 361.757 456.607 362.304 C 463.843 376.296 467.932 384.268 484.31 389.433 C 505.402 396.085 519.45 391.561 538.559 383.538 C 559.591 354.221 553.875 333.289 554.859 299.539 C 555.874 264.726 553.259 228.248 554.896 193.668 z"/>
<path transform="translate(0,0)" fill="rgb(206,12,16)" d="M 1679.56 219.959 C 1690.9 219.056 1706.03 219.72 1717.7 219.824 C 1751.38 220.125 1790.22 215.119 1814.2 244.422 C 1827.02 260.093 1829.11 280.245 1827.52 299.619 C 1825.59 323.154 1812.73 334.642 1795.71 348.385 C 1800.5 356.278 1804.89 365.19 1810.1 373.523 C 1818.02 386.187 1826.43 397.769 1832.03 411.529 C 1823.79 411.314 1815.49 411.504 1807.25 411.618 C 1797.73 412.025 1787.04 414.397 1782.06 404.346 C 1774.57 389.22 1762.59 372.819 1756.1 357.504 C 1745.57 356.661 1731.56 357.205 1720.93 357.448 L 1721.02 411.955 C 1706.97 411.737 1693.36 411.459 1679.3 411.985 C 1679.12 399.227 1679.83 385.004 1679.81 371.877 L 1679.56 219.959 z M 1721.15 318.539 C 1740.33 318.659 1763.72 323.078 1777.26 309.819 C 1788.19 297.031 1788.81 276.945 1775.82 265.675 C 1763.93 255.363 1737.04 257.981 1721.72 258.291 C 1720.59 277.952 1720.99 298.762 1721.15 318.539 z"/>
<path transform="translate(0,0)" fill="rgb(206,12,16)" d="M 651.622 220.271 C 664 219.742 681.014 219.875 693.467 219.997 C 722.126 220.558 747.868 215.992 773.095 232.99 C 803.727 253.629 808.221 299.833 788.122 329.157 C 776.632 345.92 760.437 353.537 740.228 356.818 C 725.783 357.631 707.72 357.273 692.981 357.326 C 693.131 375.409 693.177 393.492 693.117 411.575 C 679.587 412 665.383 411.685 651.434 412.103 C 650.535 369.236 651.929 324.77 651.395 281.706 C 651.257 270.527 650.458 229.212 651.622 220.271 z M 693.076 318.67 C 706.379 318.938 736.896 321.649 745.959 312.927 C 746.812 312.096 747.621 311.22 748.382 310.304 C 756.348 300.426 758.069 295.149 756.811 282.271 C 753.901 252.47 714.77 257.786 693.43 258.248 C 692.431 279.84 691.522 297.044 693.076 318.67 z"/>
<path transform="translate(0,0)" fill="rgb(206,12,16)" d="M 1203.18 219.929 C 1217.15 219.859 1231.47 219.615 1245.4 220.061 C 1256.47 236.82 1269.11 277.832 1277.32 298.299 L 1307.35 372.225 C 1312.43 384.866 1318.77 398.965 1322.63 411.819 C 1308.69 410.863 1291.86 411.796 1277.45 411.547 C 1274.06 403.426 1265.89 379.343 1263.35 371.075 C 1257.67 370.621 1251.84 370.534 1246.13 370.376 C 1227.36 370.886 1204.39 371.204 1185.8 370.627 C 1183.85 378.68 1173.88 402.752 1170.43 411.536 C 1156.85 412.23 1140.86 411.45 1126.83 411.683 C 1129.95 396.867 1145.15 367.088 1150.82 351.155 C 1159.77 325.984 1170.89 300.356 1180.86 275.465 C 1186.29 261.881 1195.91 231.694 1203.18 219.929 z M 1199.62 333.965 L 1228.17 334.101 L 1249.13 333.917 C 1245.35 325.123 1226.1 269.556 1223.34 266.69 C 1214.92 292.517 1210.54 308.369 1199.62 333.965 z"/>
<path transform="translate(0,0)" fill="rgb(206,12,16)" d="M 1524.41 219.843 L 1655.27 220.039 C 1655 232.369 1655.04 244.988 1654.94 257.345 C 1626.3 256.204 1595.11 258.319 1566.54 257.566 C 1566.3 270.419 1566.16 283.275 1566.14 296.131 C 1580.29 295.531 1634.13 295.395 1645.68 296.918 C 1646.07 306.981 1646.02 322.18 1645.4 331.981 C 1635.12 331.948 1572.18 330.796 1566.48 333.009 L 1566.12 335.75 L 1566.05 373.069 L 1659.24 373.307 C 1659.01 385.863 1659.34 399.027 1659.47 411.629 C 1617.95 412.546 1564.82 409.295 1524.3 412.145 C 1524.59 348.219 1523.6 283.686 1524.41 219.843 z"/>
<path transform="translate(0,0)" fill="rgb(206,12,16)" d="M 817.858 219.977 C 831.928 220.049 845.998 219.959 860.066 219.706 L 859.895 372.447 C 887.909 372.293 915.923 372.291 943.937 372.442 C 943.584 380.537 944.691 406.496 942.721 411.595 C 901.848 411.408 858.516 410.655 817.807 412.105 L 817.923 281.504 C 817.935 262.059 817.088 238.977 817.858 219.977 z"/>
</svg>