<svg width="606" height="100" viewBox="0 0 606 100" fill="none" xmlns="http://www.w3.org/2000/svg">
<path fill-rule="evenodd" clip-rule="evenodd" d="M6.25 6.25C12.5 0 25 0 50 0C75 0 87.5 0 93.75 6.25C100 12.5 100 25 100 50C100 75 100 87.5 93.75 93.75C87.5 100 75 100 50 100C25 100 12.5 100 6.25 93.75C0 87.5 0 75 0 50C0 25 0 12.5 6.25 6.25ZM64.02 70.118C68.371 65.83 70.547 59.839 70.547 52.144V47.886C70.547 40.066 68.404 34.042 64.114 29.849C59.826 25.623 53.519 23.51 45.193 23.51H31.287C34.944 25.087 36.7731 28.493 36.7731 33.727V41.676C36.7731 43.852 37.246 45.396 38.193 46.374C39.171 47.321 40.306 47.887 41.661 48.109V51.892C40.306 52.112 39.171 52.68 38.193 53.627C37.246 54.603 36.7731 56.149 36.7731 58.325V66.272C36.7731 71.507 34.944 74.913 31.287 76.49H45.193C53.424 76.49 59.699 74.376 64.02 70.118ZM341.493 32.478C342.578 33.565 343.927 34.1059 345.542 34.1059C347.105 34.1059 348.444 33.565 349.554 32.478C350.662 31.393 351.218 30.044 351.218 28.429C351.218 26.814 350.662 25.464 349.554 24.38C348.444 23.295 347.105 22.752 345.542 22.752C343.927 22.752 342.577 23.296 341.493 24.38C340.406 25.465 339.865 26.814 339.865 28.429C339.865 30.044 340.406 31.394 341.493 32.478ZM349.931 38.646H341.152V76.49H349.931V38.646ZM157.998 23.51H140.59V76.49H157.998C166.221 76.49 172.502 74.358 176.842 70.094C181.182 65.832 183.352 59.838 183.352 52.118V47.88C183.352 40.061 181.207 34.044 176.919 29.829C172.63 25.618 166.323 23.51 157.998 23.51ZM149.672 68.466V31.532H157.997C163.193 31.532 167.13 32.884 169.804 35.581C172.478 38.282 173.815 42.383 173.815 47.88V52.118C173.815 57.669 172.492 61.781 169.842 64.456C167.193 67.129 163.245 68.466 157.998 68.466H149.672ZM194.212 72.3281C197.416 75.5571 201.868 77.1721 207.57 77.1721C210.345 77.1721 212.856 76.7531 215.101 75.9221C217.346 75.0891 219.264 73.8781 220.854 72.2891C222.444 70.7001 223.654 68.7701 224.487 66.5001C225.32 64.2281 225.736 61.6561 225.736 58.7801V56.3571C225.736 50.5551 224.133 46.0381 220.929 42.8091C217.724 39.5821 213.272 37.9651 207.57 37.9651C204.744 37.9651 202.221 38.3831 200.002 39.2151C197.782 40.0481 195.877 41.2591 194.288 42.8481C192.699 44.4371 191.487 46.3671 190.655 48.6371C189.823 50.9091 189.407 53.4811 189.407 56.3571V58.7801C189.407 64.5821 191.007 69.0991 194.212 72.3281ZM214.193 66.4991C212.654 68.1641 210.446 68.9961 207.57 68.9961C204.796 68.9961 202.614 68.1511 201.024 66.4611C199.434 64.7711 198.641 62.2101 198.641 58.7801V56.3571C198.641 52.8751 199.409 50.3031 200.949 48.6371C202.488 46.9721 204.695 46.1401 207.571 46.1401C210.345 46.1401 212.529 46.9851 214.118 48.6751C215.706 50.3651 216.502 52.9261 216.502 56.3561V58.7791C216.502 62.2611 215.732 64.8331 214.193 66.4991ZM236.519 73.274C234.374 71.129 233.302 68.04 233.302 64.002V23.51H242.081V63.094C242.081 65.06 242.51 66.5 243.368 67.408C244.226 68.316 245.537 68.771 247.304 68.771H249.196V76.491H245.714C241.728 76.49 238.663 75.417 236.519 73.274ZM263.651 72.705C266.275 75.682 269.958 77.172 274.702 77.172C276.871 77.172 278.864 76.779 280.68 75.996C282.497 75.216 284.073 74.043 285.41 72.478C286.747 70.915 287.794 68.996 288.551 66.726C289.308 64.455 289.687 61.806 289.687 58.779V56.356C289.687 53.329 289.308 50.669 288.551 48.373C287.795 46.077 286.76 44.16 285.449 42.619C284.136 41.082 282.56 39.922 280.719 39.137C278.876 38.356 276.871 37.964 274.702 37.964C272.026 37.964 269.668 38.445 267.624 39.402C265.581 40.362 263.903 41.826 262.592 43.794L261.759 38.646H254.872V91.627H263.651V72.705ZM278.259 66.575C276.795 68.19 274.725 68.996 272.052 68.996C269.631 68.996 267.624 68.126 266.035 66.385C264.447 64.643 263.651 62.108 263.651 58.779V55.903C263.752 52.724 264.572 50.302 266.111 48.636C267.651 46.971 269.632 46.139 272.053 46.139C274.627 46.139 276.67 46.972 278.184 48.636C279.697 50.302 280.454 52.874 280.454 56.356V58.779C280.454 62.362 279.721 64.96 278.259 66.575ZM297.256 23.51H306.036V41.902C308.558 39.278 312.064 37.965 316.556 37.965C321.198 37.965 324.817 39.34 327.416 42.091C330.015 44.842 331.314 48.99 331.314 54.541V76.49H322.535V54.541C322.535 51.766 321.866 49.671 320.529 48.259C319.191 46.847 317.362 46.14 315.042 46.14C312.317 46.14 310.16 46.871 308.571 48.335C306.981 49.799 306.135 51.741 306.036 54.162V76.49H297.256V23.51ZM360.15 38.646H367.036L367.717 42.884C370.541 39.605 374.452 37.964 379.449 37.964C384.088 37.964 387.71 39.339 390.308 42.09C392.906 44.841 394.206 48.989 394.206 54.54V76.49H385.427V54.541C385.427 51.766 384.756 49.671 383.42 48.259C382.083 46.847 380.255 46.14 377.936 46.14C375.211 46.14 373.053 46.871 371.464 48.335C369.873 49.799 369.028 51.741 368.929 54.162V76.49H360.15V38.646ZM422.513 28.354H425.995V23.509H422.513C413.228 23.509 408.586 28.153 408.586 37.436V47.273C408.586 49.949 407.993 51.878 406.807 53.064C405.621 54.25 404.196 54.97 402.532 55.222V59.913C404.196 60.167 405.621 60.885 406.807 62.071C407.993 63.257 408.586 65.187 408.586 67.86V77.7C408.586 86.983 413.228 91.627 422.513 91.627H425.995V86.783H422.513C416.761 86.783 413.885 83.756 413.885 77.7V67.861C413.885 66.753 413.82 65.692 413.695 64.683C413.567 63.674 413.305 62.728 412.899 61.844C412.496 60.962 411.929 60.169 411.196 59.462C410.465 58.755 409.519 58.125 408.359 57.569C410.679 56.56 412.182 55.161 412.863 53.367C413.544 51.577 413.885 49.546 413.885 47.274V37.437C413.885 31.381 416.761 28.354 422.513 28.354ZM444.537 77.019C440.754 77.019 437.849 76.049 435.834 74.106C433.814 72.164 432.805 69.477 432.805 66.045C432.805 64.228 433.096 62.576 433.676 61.086C434.256 59.598 435.189 58.35 436.476 57.341C437.763 56.332 439.414 55.549 441.434 54.993C443.45 54.439 445.873 54.161 448.699 54.161H457.327V50.755C457.327 48.032 456.656 46.025 455.322 44.738C453.983 43.453 451.776 42.808 448.699 42.808C445.922 42.808 443.842 43.351 442.453 44.436C441.067 45.523 440.271 46.997 440.071 48.864H434.696C434.797 47.299 435.151 45.863 435.755 44.55C436.361 43.237 437.243 42.103 438.405 41.144C439.565 40.185 441.003 39.441 442.719 38.911C444.435 38.383 446.427 38.118 448.699 38.118C453.188 38.118 456.581 39.228 458.879 41.447C461.173 43.668 462.322 46.772 462.322 50.756V76.49H458.461L457.704 69.376C456.391 71.797 454.589 73.677 452.293 75.014C449.998 76.35 447.413 77.019 444.537 77.019ZM444.915 72.327C446.631 72.327 448.246 72.012 449.759 71.381C451.272 70.751 452.598 69.893 453.732 68.807C454.868 67.723 455.75 66.461 456.382 65.023C457.012 63.585 457.329 62.059 457.329 60.444V58.704H448.701C444.814 58.704 442.052 59.385 440.414 60.746C438.773 62.109 437.952 63.876 437.952 66.045C437.952 67.962 438.545 69.488 439.733 70.624C440.916 71.758 442.645 72.327 444.915 72.327ZM478.669 38.646H474.81H474.809V76.49H479.804V53.33C479.904 50.15 480.977 47.604 483.021 45.685C485.065 43.768 487.751 42.809 491.082 42.809C494.158 42.809 496.556 43.717 498.272 45.534C499.986 47.352 500.844 50.103 500.844 53.785V76.49H505.839V53.784C505.839 48.586 504.591 44.676 502.092 42.052C499.596 39.431 496.177 38.118 491.839 38.118C489.013 38.118 486.527 38.698 484.384 39.858C482.239 41.02 480.536 42.684 479.275 44.853L478.669 38.646ZM513.032 38.646H519.843V28.052H524.838V38.646H534.979V43.188H524.838V65.894C524.838 69.93 526.705 71.948 530.439 71.948H535.738V76.49H529.833C526.554 76.49 524.068 75.645 522.378 73.955C520.688 72.265 519.843 69.779 519.843 66.5V43.189H513.032V38.646ZM541.789 38.646L557.456 76.49L551.628 91.627H556.925L577.361 38.646H572.064L560.181 70.283L547.39 38.646H541.789ZM582.206 86.782H585.687C591.439 86.782 594.315 83.755 594.315 77.699V67.86C594.315 65.59 594.654 63.559 595.335 61.767C596.016 59.978 597.517 58.576 599.839 57.567C598.677 57.013 597.733 56.381 597.002 55.674C596.269 54.969 595.702 54.174 595.299 53.29C594.896 52.408 594.631 51.462 594.506 50.453C594.379 49.444 594.316 48.386 594.316 47.273V37.436C594.316 31.38 591.44 28.353 585.688 28.353H582.206V23.51H585.688C594.971 23.51 599.613 28.154 599.613 37.437V47.274C599.613 49.949 600.206 51.881 601.392 53.067C602.576 54.251 604.003 54.971 605.667 55.223V59.914C604.003 60.168 602.575 60.886 601.392 62.072C600.206 63.256 599.613 65.187 599.613 67.861V77.7C599.613 86.983 594.971 91.627 585.688 91.627H582.206V86.782Z" fill="white"/>
</svg>
